<svg xmlns="http://www.w3.org/2000/svg" xmlns:xlink="http://www.w3.org/1999/xlink" viewBox="0 0 400 300"><defs><linearGradient id="linear-gradient" x1="85.12" y1="216.37" x2="111.04" y2="198.16" gradientUnits="userSpaceOnUse"><stop offset="0" stop-color="#fff" stop-opacity="0"/><stop offset="1" stop-color="#22b573"/></linearGradient><linearGradient id="linear-gradient-2" x1="300.08" y1="212.6" x2="319.58" y2="191.96" xlink:href="#linear-gradient"/><linearGradient id="linear-gradient-3" x1="198.97" y1="205.93" x2="217.58" y2="186.24" xlink:href="#linear-gradient"/><linearGradient id="linear-gradient-4" x1="182.83" y1="262.66" x2="207.4" y2="236.65" xlink:href="#linear-gradient"/></defs><title>PP</title><g style="isolation:isolate"><g id="Layer_2" data-name="Layer 2"><path d="M196.24,291.07,23.74,189.12C18.25,186,13.54,181,18.9,177.66L192,77.89c2.6-1.61,6.54-2.66,9.18-1.13L382.28,181.85c5.49,3.19,6.48,12.1,1,15.29L219,290.91A22.94,22.94,0,0,1,196.24,291.07Z" fill="#acf4e6"/><path d="M97.38,229l25.2-11.94L100,185.58,57.5,208.73C71.06,214.93,84,222.46,97.38,229Z" opacity="0.63" fill="url(#linear-gradient)" style="mix-blend-mode:multiply"/><polygon points="351.4 187.44 311.67 218.69 280.5 204.16 325 176.53 351.4 187.44" opacity="0.63" fill="url(#linear-gradient-2)" style="mix-blend-mode:multiply"/><path d="M334.39,132.82c-14.07,0-25.48,3.73-25.48,8.33h51C359.87,136.55,348.47,132.82,334.39,132.82Z" fill="#06489e"/><path d="M309,141.79l-.08-.64A2.82,2.82,0,0,0,309,141.79Z" fill="#06489e"/><path d="M359.87,141.15l-.1.73A2.84,2.84,0,0,0,359.87,141.15Z" fill="#06489e"/><path d="M334.39,149.48c13.32,0,24.25-3.34,25.38-7.6l.1-.73h-51l.08.64C310,146.09,321,149.48,334.39,149.48Z" fill="#06489e"/><rect x="338.4" y="98.14" width="5.73" height="59.14" fill="#25b000"/><ellipse cx="341.27" cy="98.14" rx="2.87" ry="1.21" fill="#25b000"/><rect x="345.28" y="108.25" width="5.73" height="59.14" transform="translate(34.61 -66.86) rotate(11.54)" fill="#ff8f02"/><ellipse cx="354.06" cy="108.85" rx="1.21" ry="2.87" transform="translate(176.57 433.97) rotate(-78.46)" fill="#ff8f02"/><path d="M327.47,142.45l-5.23,3a.46.46,0,0,1-.46-.8l5.36-3.06a.47.47,0,0,1,.17-.06l-1.05-5.66-5.26,3a.46.46,0,0,1-.46-.8l5.36-3.06a.47.47,0,0,1,.2-.06l-1-5.24-5.18,3a.46.46,0,0,1-.46-.8l5.36-3.06.1,0-1.08-5.84-5.15,2.95a.46.46,0,0,1-.46-.8l5.36-3.06.08,0-1.06-5.7-5.23,3a.46.46,0,0,1-.46-.8l5.36-3.06a.47.47,0,0,1,.17-.06l-.92-4.95-5.24,3a.46.46,0,0,1-.46-.8l5.36-3.06a.47.47,0,0,1,.17-.06l-.92-4.94-5.23,3a.46.46,0,0,1-.46-.8l5.36-3.06a.47.47,0,0,1,.16-.06l-1-5.44-5.17,3a.46.46,0,0,1-.46-.8L319,97.21l.1,0-.47-2.53-11.37,7s8.08,45,8.25,45c4.72,2.46,13.29,2.75,13.29,2.75Z" fill="#ffaf68"/><path d="M313.61,100.27a.46.46,0,0,0,.46.8l5.17-3-.18-1-.1,0Z" fill="#ca4300"/><path d="M314.74,106.68a.46.46,0,0,0,.46.8l5.23-3-.17-.93a.47.47,0,0,0-.16.06Z" fill="#ca4300"/><path d="M315.82,112.56a.46.46,0,0,0,.46.8l5.24-3-.17-.93a.47.47,0,0,0-.17.06Z" fill="#ca4300"/><path d="M316.92,118.43a.46.46,0,0,0,.46.8l5.23-3-.17-.93a.47.47,0,0,0-.17.06Z" fill="#ca4300"/><path d="M318.23,125a.46.46,0,0,0,.46.8l5.15-2.95-.18-1-.08,0Z" fill="#ca4300"/><path d="M319.47,131.85a.46.46,0,0,0,.46.8l5.18-3-.18-1-.1,0Z" fill="#ca4300"/><path d="M325.88,135l-5.36,3.06a.46.46,0,0,0,.46.8l5.26-3-.17-.92A.47.47,0,0,0,325.88,135Z" fill="#ca4300"/><path d="M321.78,144.64a.46.46,0,0,0,.46.8l5.23-3-.17-.93a.47.47,0,0,0-.17.06Z" fill="#ca4300"/><path d="M351.25,108.28s.29,1.5,2.57,1.76,3.05-.62,3.05-.62l-.74-11.28Z" fill="#ffd8bd"/><path d="M356.13,98.14l-2.27,4.71a2.06,2.06,0,0,0,2.6.36Z" fill="#653200"/><path d="M338.4,97.8s.52,1.44,2.81,1.34S344.13,98,344.13,98l-2.51-11Z" fill="#ffd8bd"/><path d="M341.62,87l-1.49,5a2.06,2.06,0,0,0,2.62-.05Z" fill="#653200"/><path d="M334.39,149.48c-13.41,0-24.39-3.39-25.4-7.69.67,5.15,5.24,40.5,5.42,40.7,0,0,2.34,10,20,10,15,0,19.29-7.54,19.29-7.54l6.09-43C358.64,146.14,347.71,149.48,334.39,149.48Z" fill="#68e1fd"/><polygon points="264.18 197.28 216.73 222.69 164.05 182.53 212.82 157.48 264.18 197.28" opacity="0.63" fill="url(#linear-gradient-3)" style="mix-blend-mode:multiply"/><polygon points="251.62 234.85 184.44 266.67 154.04 248.13 222.57 222.69 251.62 234.85" opacity="0.63" fill="url(#linear-gradient-4)" style="mix-blend-mode:multiply"/><path d="M90.28,95.83c0,.07,4.71-8.09,4-15.37s-9.91-2-9.91-2" fill="#ffb39c"/><path d="M93,59.25S85.11,63,84.36,80.33c0,0,8.26,1.61,11.84.73" fill="#68e1fd"/><path d="M107.92,135.36s2.65,21.72,4.15,27.28,2.83,40.46,2.83,40.46,4.67,3.33,8.67,0c0,0,2.11-28.27,1-35.83s0-37.31,0-37.31" fill="#ffc6b2"/><path d="M92.63,129.09s-.53,16,0,21.31,2.82,38.74,2.82,38.74,3.87,3.35,7.75,0c0,0,2.56-16.55,2.25-19.72s-.84-43.14-.84-43.14" fill="#ffc6b2"/><path d="M109,49.24c0,.09,19.35,17.52,13.53,23.77S109,70.75,109,70.75L106.61,50.9" fill="#f18f22"/><path d="M107.92,215.57a4.54,4.54,0,0,0,.87,5c2.22,2.37,5.15,1.19,7.62,0s9.44-7.4,8.48-9-1.32-8.46-1.32-8.46" fill="#fff"/><path d="M114.79,200.4s-1.13,6.44-2.72,8.53-5.38,7.2-4.15,8.53,2.14-2.65,4.15-1.52,1.38,4,2.83,3.41,8.28-6,9-9.44-.95-9.51-.95-9.51" fill="#68e1fd"/><path d="M83.48,198.53s-.28,3.84,3.2,4.56,7.79-1.39,9.74-2.28,9-6.88,9-6.88l-.84-8.35" fill="#fff"/><path d="M95.16,185s-2.08,5.17-5.84,7.12-6.68,5.71-5.85,6.4,2.64-1.81,3.62-1.11,1,3.74,2.15,3,3.69,1.19,7.17-1.17,2.37-3.34,5.29-4.45,2.92-9.19,2.92-9.19S97.25,187.22,95.16,185Z" fill="#68e1fd"/><path d="M92,100a59,59,0,0,0-3,16.13c-.54,9.71,3.4,66.49,3.4,66.49a30.32,30.32,0,0,0,18.1,1v13s10,3.24,20.91-3.77c0,0-1.75-81.52-13.61-91.7" fill="#f15a24"/><path d="M118.64,65.47C117,59.91,108.11,57.92,98,58.21a12.49,12.49,0,0,0-5,1c-3.53,5.11-2.75,12.11-2.2,18,.61,6.6.71,18.36,1.19,22.76,9.1,4.7,23.38,1.6,25.82,1.08C117.79,101.06,120.23,71,118.64,65.47Z" fill="#68e1fd"/><path d="M104.93,54l.51,5.24s-3.58,2.22-6.72.71l-.43-3.29" fill="#ffb39c"/><path d="M97.2,52.49c-8.18.95-7.54-5.66-7.54-5.66C88.36,33,103.12,35.64,103.12,35.64s11.14,2.61,4.24,16.43" fill="#f18f22"/><path d="M91.14,41.91s.6,17,7.62,16.25,6.62-6.62,6.62-6.62,1-10.63-4.81-12.64S91.14,41.91,91.14,41.91Z" fill="#ffc6b2"/><path d="M91.14,41.91s4.07,6.08,9.12,5.63S104.93,54,104.93,54s4.86-2.2,4.77-8.8c-.05-3.74-5.26-9.9-10.12-9.61S90,38.46,91.14,41.91Z" fill="#f18f22"/><path d="M115.86,61.52a53.38,53.38,0,0,1,10.25,12.55s-4.82,6.45-9.71,8,0-.73,0-.73-5-3.44-5.83-6.48S115.86,61.52,115.86,61.52Z" fill="#68e1fd"/><path d="M78.08,67.12a.86.86,0,0,1,1.31-.93c2.25,1.49,5.65,3.66,5.6,3.7S87.8,80.46,87.8,80.46L80.24,76Z" fill="#842e13"/><path d="M85.14,82.63S88.82,80.7,89,79.21s-1.88-4.38-2.84-4.88-4.85,2.27-4.85,2.27l-1.86-3.94a5.75,5.75,0,0,0-.61,2.63c.12,1.19.6,10,1.93,11.19s5.18,1,5.42,0S85.14,82.63,85.14,82.63Z" fill="#ffc6b2"/><path d="M79.85,84.13s2.08,11.58,4.51,13.22a4.26,4.26,0,0,0,6.39-4.54c-.68-4.54-5.42-11.48-5.42-11.48" fill="#ffc6b2"/><path d="M106.07,120.16c-.08-.78-1.32-.79-1.24,0q3.46,32.63,5.46,65.39c0,.79,1.29.8,1.24,0Q109.54,152.79,106.07,120.16Z" fill="#842e13"/><path d="M206.1,15.09c13.7,8.11,47.59,28.18,57.72,34.06a5.66,5.66,0,0,1,2.82,4.94V193.25c.21,2.84-3,5.46-5.61,4l-57-32.44c-2.29-1.31-3.75-3.16-3.75-5.81V18.4A3.85,3.85,0,0,1,206.1,15.09Z" fill="#68e1fd"/><path d="M200.66,16.74l18.14,10.47v3.87a1.86,1.86,0,0,0,.93,1.61l13.87,8a1.23,1.23,0,0,0,1.84-1.06V36.81l26,15.27a1.65,1.65,0,0,1,.82,1.42V192.58a1.12,1.12,0,0,1-1.69,1l-60.33-35a6,6,0,0,0,2.66,5.55c3.13,2,58.09,33.09,58.09,33.09s4.35,2,5.61-3.22V54.09a5.72,5.72,0,0,0-2.36-4.64c-2.52-1.83-58.18-34.36-58.18-34.36A3.94,3.94,0,0,0,200.66,16.74Z" fill="#124577"/><ellipse cx="229.53" cy="100.08" rx="11.57" ry="25.24" fill="#fff"/><path d="M240.24,89.23a2.63,2.63,0,0,0-.36-.24c-1.87-.86-31.27,1-31.27,1l18.47,29.12s11.39-14.23,14.15-20.17A42.91,42.91,0,0,0,240.24,89.23Z" fill="#f15a24"/><path d="M200,99.42c.09-.3,3.08-14,16.66-8.16,12.27,5.26,12.64,20.9,11.81,24.73-.68,3.11-3.86,7.35-10,8.89" fill="#ff7348"/><ellipse cx="212.83" cy="108.26" rx="12.53" ry="17.61" transform="translate(-25.5 93.52) rotate(-23.42)" fill="#9b3110"/><path d="M226,109.05l-13.3,3.48-2.91-6.18,12-7.5S225.28,104.13,226,109.05Z" fill="#fff"/><ellipse cx="211.44" cy="109.36" rx="2.76" ry="3.43" transform="translate(-26.6 107.66) rotate(-26.94)" fill="#f7d600"/><path d="M185.27,94.29l6.85,4.95c2.38,1.72-.28,5.41-2.67,3.69L182.6,98C180.22,96.26,182.89,92.57,185.27,94.29Z" fill="#f7d600"/><path d="M175.85,112.49l11.24-1.82c2.89-.47,3.62,4,.73,4.5L176.57,117C173.68,117.45,172.95,113,175.85,112.49Z" fill="#f7d600"/><path d="M188.92,127.5l4.52-5.92c1.78-2.33,5.48.33,3.69,2.67l-4.52,5.92C190.84,132.5,187.14,129.84,188.92,127.5Z" fill="#f7d600"/><path d="M92.42,71.89c-.38.92,4.16,17.6,4.16,17.6l13.61,1.28L106.73,73Z" fill="#25b000"/><path d="M125.43,74.73c-2.86,2.4-4.19,4.23-7.13,6.53l3.6,7.85-12.15-5.18s-1.36-8-2.48-8.05-.48,4.87-.7,6-5.75-6.55-6.45-6,1.36,8.77,1.75,10.33,4.71,4.09,4.71,4.09,11.33,4.7,14.54,6.28,10,.68,9.69-4.53C130.61,88.63,127.28,79.24,125.43,74.73Z" fill="#ffc6b2"/><path d="M239.86,203.24l26.75,16.18a44.84,44.84,0,0,1-41.11,22.11c-29.07-1.2-43.85-41-43.85-41l17.87,8.61-28.68-41.86-26.18,15.27,21.81,11.52S195.22,257.23,239.86,203.24Z" fill="#25b000"/><path d="M166.46,194.05s20.35,44.72,59,47.48c0,0-38.2-13.09-43.85-41" fill="#290"/></g></g></svg>